<svg xmlns="http://www.w3.org/2000/svg" width="460.19" height="384.1" viewBox="0 0 460.19 384.1"><polygon points="151.41 266.31 106.36 294.45 108.2 347.53 155.1 372.48 200.15 344.33 198.3 291.25 151.41 266.31" fill="none" stroke="#047469" stroke-miterlimit="10" stroke-width="4"/><polygon points="409.41 2.31 364.36 30.45 366.2 83.53 413.1 108.48 458.15 80.33 456.3 27.25 409.41 2.31" fill="none" stroke="#047469" stroke-miterlimit="10" stroke-width="4"/><polygon points="305.14 182.46 260.09 210.6 261.94 263.68 308.83 288.63 353.88 260.49 352.04 207.4 305.14 182.46" fill="none" stroke="#047469" stroke-miterlimit="10" stroke-width="4"/><polygon points="204.97 179.03 159.93 207.17 161.77 260.26 208.67 285.2 253.72 257.06 251.87 203.97 204.97 179.03" fill="none" stroke="#047469" stroke-miterlimit="10" stroke-width="4"/><polygon points="255.14 92.46 210.09 120.6 211.94 173.68 258.83 198.63 303.88 170.49 302.04 117.4 255.14 92.46" fill="none" stroke="#047469" stroke-miterlimit="10" stroke-width="4"/><polygon points="303.98 4.03 258.93 32.17 260.77 85.26 307.67 110.2 352.72 82.06 350.87 28.98 303.98 4.03" fill="none" stroke="#047469" stroke-miterlimit="10" stroke-width="4"/><polygon points="94.09 182.62 49.04 210.76 50.88 263.85 97.78 288.79 142.83 260.65 140.98 207.57 94.09 182.62" fill="none" stroke="#047469" stroke-miterlimit="10" stroke-width="4"/><polygon points="47.09 275.62 2.04 303.76 3.88 356.85 50.78 381.79 95.83 353.65 93.98 300.57 47.09 275.62" fill="none" stroke="#047469" stroke-miterlimit="10" stroke-width="4"/><polygon points="148.08 96.01 103.03 124.16 104.87 177.24 151.77 202.18 196.82 174.04 194.97 120.96 148.08 96.01" fill="none" stroke="#047469" stroke-miterlimit="10" stroke-width="4"/><polygon points="357.02 92.18 311.97 120.32 313.82 173.41 360.72 198.35 405.76 170.21 403.92 117.12 357.02 92.18" fill="none" stroke="#047469" stroke-miterlimit="10" stroke-width="4"/><polygon points="90.2 12.78 45.16 40.92 47 94 93.9 118.94 138.94 90.8 137.1 37.72 90.2 12.78" fill="none" stroke="#047469" stroke-miterlimit="10" stroke-width="4"/><polygon points="197.2 6.78 152.16 34.92 154 88 200.9 112.94 245.94 84.8 244.1 31.72 197.2 6.78" fill="none" stroke="#047469" stroke-miterlimit="10" stroke-width="4"/></svg>