<?xml version="1.0" encoding="UTF-8"?>
<svg width="24px" height="24px" viewBox="0 0 24 24" version="1.1" xmlns="http://www.w3.org/2000/svg" xmlns:xlink="http://www.w3.org/1999/xlink">
    <!-- Generator: Sketch 46.2 (44496) - http://www.bohemiancoding.com/sketch -->
    <title>dribbble</title>
    <desc>Created with Sketch.</desc>
    <defs></defs>
    <g id="icons" stroke="none" stroke-width="1" fill="none" fill-rule="evenodd">
        <g id="Artboard" transform="translate(-472.000000, -100.000000)" fill-rule="nonzero" fill="#FFFFFF">
            <path d="M472,112 C472,109.823992 472.536016,107.816008 473.608,105.976 C474.680008,104.135992 476.136016,102.680008 477.976,101.608 C479.816008,100.535992 481.824016,100 484,100 C486.176008,100 488.184016,100.535992 490.024,101.608 C491.864008,102.680008 493.320016,104.135992 494.392,105.976 C495.464008,107.816008 496,109.823992 496,112 C496,114.176008 495.464008,116.183992 494.392,118.024 C493.320016,119.864008 491.864008,121.319992 490.024,122.392 C488.184016,123.464008 486.176008,124 484,124 C481.824016,124 479.816008,123.464008 477.976,122.392 C476.136016,121.319992 474.680008,119.864008 473.608,118.024 C472.536016,116.183992 472,114.176008 472,112 Z M473.992,112 C473.992,114.496 474.832,116.696008 476.512,118.6 C477.28,117.095992 478.496008,115.664008 480.16,114.304 C481.824016,112.943992 483.448,112.088008 485.032,111.736 C484.792,111.176008 484.560016,110.672008 484.336,110.224 C481.584016,111.104008 478.608016,111.544 475.408,111.544 C474.784,111.544 474.320008,111.536008 474.016,111.52 C474.016,111.584008 474.012016,111.664 474.004,111.76 C473.996008,111.856 473.992,111.935992 473.992,112 Z M474.304,109.528 C474.656008,109.559992 475.176016,109.576 475.864,109.576 C478.536016,109.576 481.072,109.216 483.472,108.496 C482.256016,106.336 480.920008,104.536 479.464,103.096 C478.200016,103.736008 477.116008,104.624008 476.212,105.76 C475.308016,106.895992 474.672016,108.152008 474.304,109.528 Z M477.88,119.896 C479.688016,121.304008 481.728016,122.008 484,122.008 C485.184016,122.008 486.360016,121.784008 487.528,121.336 C487.208008,118.6 486.584008,115.952008 485.656,113.392 C484.184008,113.711992 482.700016,114.52 481.204,115.816 C479.708008,117.112 478.6,118.472008 477.88,119.896 Z M481.552,102.328 C482.960008,103.784008 484.264,105.599992 485.464,107.776 C487.640008,106.864 489.28,105.704008 490.384,104.296 C488.528008,102.76 486.4,101.992 484,101.992 C483.184,101.992 482.368,102.104008 481.552,102.328 Z M486.328,109.48 C486.568,109.991992 486.840016,110.639992 487.144,111.424 C488.328016,111.311992 489.616,111.256 491.008,111.256 C492.000016,111.256 492.984016,111.28 493.96,111.328 C493.832008,109.151992 493.048,107.216008 491.608,105.52 C490.568008,107.072008 488.808016,108.392008 486.328,109.48 Z M487.744,113.104 C488.56,115.472008 489.112,117.904 489.4,120.4 C490.664008,119.584 491.696008,118.535992 492.496,117.256 C493.296016,115.976008 493.776016,114.592 493.936,113.104 C492.768016,113.024008 491.704,112.984 490.744,112.984 C489.864016,112.984 488.864008,113.024008 487.744,113.104 Z" id="dribbble"></path>
        </g>
    </g>
</svg>