<?xml version="1.0" encoding="UTF-8"?>
<svg width="20px" height="20px" viewBox="0 0 20 20" version="1.1" xmlns="http://www.w3.org/2000/svg" xmlns:xlink="http://www.w3.org/1999/xlink">
    <!-- Generator: Sketch 46 (44423) - http://www.bohemiancoding.com/sketch -->
    <title>gps</title>
    <desc>Created with Sketch.</desc>
    <defs></defs>
    <g id="icons" stroke="none" stroke-width="1" fill="none" fill-rule="evenodd">
        <g id="Artboard" transform="translate(-474.000000, -203.000000)" fill-rule="nonzero" fill="#FFFFFF">
            <path d="M479.561663,217.78095 C479.043066,218.921863 479.000953,218.88149 480.134771,218.314581 L485.665353,215.549289 C486.431908,215.166012 487.564979,215.164455 488.334647,215.549289 L493.865229,218.314581 C495.002134,218.883033 494.958273,218.924809 494.438337,217.78095 L487.74093,203.046655 C487.186448,201.826796 486.813874,201.826086 486.25907,203.046655 L479.561663,217.78095 Z M485.348703,202.632853 C486.260689,200.626483 487.743456,200.635602 488.651297,202.632853 L495.348703,217.367147 C496.260689,219.373517 495.393327,220.196663 493.418016,219.209008 L487.887433,216.443717 C487.397317,216.198659 486.595603,216.202199 486.112567,216.443717 L480.581984,219.209008 C478.603709,220.198146 477.743456,219.364398 478.651297,217.367147 L485.348703,202.632853 Z" id="gps" transform="translate(487.000658, 210.379123) rotate(45.000000) translate(-487.000658, -210.379123) "></path>
        </g>
    </g>
</svg>