<?xml version="1.0" encoding="UTF-8"?>
<svg width="24px" height="15px" viewBox="0 0 24 15" version="1.1" xmlns="http://www.w3.org/2000/svg" xmlns:xlink="http://www.w3.org/1999/xlink">
    <!-- Generator: Sketch 46 (44423) - http://www.bohemiancoding.com/sketch -->
    <title>email</title>
    <desc>Created with Sketch.</desc>
    <defs></defs>
    <g id="icons" stroke="none" stroke-width="1" fill="none" fill-rule="evenodd">
        <g id="Artboard" transform="translate(-625.000000, -106.000000)" fill-rule="nonzero" fill="#FFFFFF">
            <path d="M626,108.999422 L626,118.000578 C626,119.104567 626.892645,120 627.99109,120 L646.00891,120 C647.106359,120 648,119.10441 648,118.000578 L648,108.999422 C648,107.895433 647.107355,107 646.00891,107 L627.99109,107 C626.893641,107 626,107.89559 626,108.999422 Z M625,108.999422 C625,107.342887 626.341771,106 627.99109,106 L646.00891,106 C647.660843,106 649,107.344351 649,108.999422 L649,118.000578 C649,119.657113 647.658229,121 646.00891,121 L627.99109,121 C626.339157,121 625,119.655649 625,118.000578 L625,108.999422 Z M644.735001,108.576001 L637,113.410376 L629.264999,108.576001 L628.735001,109.423999 L637,114.589624 L645.264999,109.423999 L644.735001,108.576001 Z M641.353655,113.646549 L640.646345,114.353451 L644.644037,118.353451 L645.351348,117.646549 L641.353655,113.646549 Z M632.644037,113.646549 L628.646345,117.646549 L629.353655,118.353451 L633.351348,114.353451 L632.644037,113.646549 Z" id="email"></path>
        </g>
    </g>
</svg>